<mxfile host="app.diagrams.net" modified="2023-11-07T07:17:35.461Z" agent="Mozilla/5.0 (Windows NT 10.0; Win64; x64) AppleWebKit/537.36 (KHTML, like Gecko) Chrome/119.0.0.0 Safari/537.36 Edg/119.0.0.0" etag="RC7YNnVXTeFJkWOkp9D0" version="22.0.8" type="device">
  <diagram name="Page-1" id="Og4s9OaqH2sMT3rIZT_j">
    <mxGraphModel dx="1424" dy="814" grid="1" gridSize="10" guides="1" tooltips="1" connect="1" arrows="1" fold="1" page="1" pageScale="1" pageWidth="850" pageHeight="1100" math="0" shadow="0">
      <root>
        <mxCell id="0" />
        <mxCell id="1" parent="0" />
        <mxCell id="QG9HWgPrU2JP6OdAzRxG-1" value="" style="ellipse;html=1;shape=startState;fillColor=#000000;strokeColor=#ff0000;" vertex="1" parent="1">
          <mxGeometry x="230" y="110" width="30" height="30" as="geometry" />
        </mxCell>
        <mxCell id="QG9HWgPrU2JP6OdAzRxG-2" value="" style="edgeStyle=orthogonalEdgeStyle;html=1;verticalAlign=bottom;endArrow=open;endSize=8;strokeColor=#ff0000;rounded=0;" edge="1" source="QG9HWgPrU2JP6OdAzRxG-1" parent="1">
          <mxGeometry relative="1" as="geometry">
            <mxPoint x="245" y="200" as="targetPoint" />
          </mxGeometry>
        </mxCell>
        <mxCell id="QG9HWgPrU2JP6OdAzRxG-3" value="lagi mules?" style="rounded=1;whiteSpace=wrap;html=1;" vertex="1" parent="1">
          <mxGeometry x="185" y="210" width="120" height="60" as="geometry" />
        </mxCell>
        <mxCell id="QG9HWgPrU2JP6OdAzRxG-7" style="edgeStyle=orthogonalEdgeStyle;rounded=0;orthogonalLoop=1;jettySize=auto;html=1;exitX=1;exitY=0.5;exitDx=0;exitDy=0;exitPerimeter=0;" edge="1" parent="1" source="QG9HWgPrU2JP6OdAzRxG-4" target="QG9HWgPrU2JP6OdAzRxG-6">
          <mxGeometry relative="1" as="geometry" />
        </mxCell>
        <mxCell id="QG9HWgPrU2JP6OdAzRxG-13" value="true" style="edgeLabel;html=1;align=center;verticalAlign=middle;resizable=0;points=[];" vertex="1" connectable="0" parent="QG9HWgPrU2JP6OdAzRxG-7">
          <mxGeometry x="-0.2" y="-7" relative="1" as="geometry">
            <mxPoint as="offset" />
          </mxGeometry>
        </mxCell>
        <mxCell id="QG9HWgPrU2JP6OdAzRxG-4" value="" style="strokeWidth=2;html=1;shape=mxgraph.flowchart.decision;whiteSpace=wrap;" vertex="1" parent="1">
          <mxGeometry x="220" y="350" width="50" height="50" as="geometry" />
        </mxCell>
        <mxCell id="QG9HWgPrU2JP6OdAzRxG-5" style="edgeStyle=orthogonalEdgeStyle;rounded=0;orthogonalLoop=1;jettySize=auto;html=1;exitX=0.5;exitY=1;exitDx=0;exitDy=0;entryX=0.5;entryY=0;entryDx=0;entryDy=0;entryPerimeter=0;" edge="1" parent="1" source="QG9HWgPrU2JP6OdAzRxG-3" target="QG9HWgPrU2JP6OdAzRxG-4">
          <mxGeometry relative="1" as="geometry" />
        </mxCell>
        <mxCell id="QG9HWgPrU2JP6OdAzRxG-11" style="edgeStyle=orthogonalEdgeStyle;rounded=0;orthogonalLoop=1;jettySize=auto;html=1;exitX=0.5;exitY=1;exitDx=0;exitDy=0;entryX=0.5;entryY=0;entryDx=0;entryDy=0;" edge="1" parent="1" source="QG9HWgPrU2JP6OdAzRxG-6" target="QG9HWgPrU2JP6OdAzRxG-10">
          <mxGeometry relative="1" as="geometry" />
        </mxCell>
        <mxCell id="QG9HWgPrU2JP6OdAzRxG-6" value="berak" style="rounded=1;whiteSpace=wrap;html=1;" vertex="1" parent="1">
          <mxGeometry x="400" y="345" width="120" height="60" as="geometry" />
        </mxCell>
        <mxCell id="QG9HWgPrU2JP6OdAzRxG-12" style="edgeStyle=orthogonalEdgeStyle;rounded=0;orthogonalLoop=1;jettySize=auto;html=1;exitX=1;exitY=0.5;exitDx=0;exitDy=0;entryX=0.5;entryY=0;entryDx=0;entryDy=0;" edge="1" parent="1" source="QG9HWgPrU2JP6OdAzRxG-8" target="QG9HWgPrU2JP6OdAzRxG-10">
          <mxGeometry relative="1" as="geometry" />
        </mxCell>
        <mxCell id="QG9HWgPrU2JP6OdAzRxG-8" value="gak berak" style="rounded=1;whiteSpace=wrap;html=1;" vertex="1" parent="1">
          <mxGeometry x="270" y="430" width="120" height="60" as="geometry" />
        </mxCell>
        <mxCell id="QG9HWgPrU2JP6OdAzRxG-9" style="edgeStyle=orthogonalEdgeStyle;rounded=0;orthogonalLoop=1;jettySize=auto;html=1;exitX=0.5;exitY=1;exitDx=0;exitDy=0;exitPerimeter=0;entryX=0.008;entryY=0.625;entryDx=0;entryDy=0;entryPerimeter=0;" edge="1" parent="1" source="QG9HWgPrU2JP6OdAzRxG-4" target="QG9HWgPrU2JP6OdAzRxG-8">
          <mxGeometry relative="1" as="geometry" />
        </mxCell>
        <mxCell id="QG9HWgPrU2JP6OdAzRxG-14" value="false" style="edgeLabel;html=1;align=center;verticalAlign=middle;resizable=0;points=[];" vertex="1" connectable="0" parent="QG9HWgPrU2JP6OdAzRxG-9">
          <mxGeometry x="-0.2938" relative="1" as="geometry">
            <mxPoint as="offset" />
          </mxGeometry>
        </mxCell>
        <mxCell id="QG9HWgPrU2JP6OdAzRxG-10" value="" style="ellipse;html=1;shape=endState;fillColor=#000000;strokeColor=#ff0000;" vertex="1" parent="1">
          <mxGeometry x="445" y="540" width="30" height="30" as="geometry" />
        </mxCell>
      </root>
    </mxGraphModel>
  </diagram>
</mxfile>
